<svg width="357" height="33" viewBox="0 0 357 33" fill="none" xmlns="http://www.w3.org/2000/svg">
<mask id="path-1-inside-1_3539_698" fill="white">
<path d="M11.3198 0.0487805C10.9738 0 10.5783 0 10.1828 0C9.24343 0 8.3041 0.146341 7.36477 0.439024C4.29959 1.46341 1.97599 4.09756 0.789467 7.80488C-0.347616 11.4146 -0.248739 15.6585 1.03666 19.7561C3.16251 26.3902 8.10635 31.3171 13.3468 31.9512C13.7423 32 14.1378 32 14.4839 32C15.4232 32 16.3626 31.8537 17.3019 31.561C20.3671 30.5366 22.7401 27.9512 23.8772 24.1951C25.0143 20.5854 24.9154 16.3415 23.63 12.2439C21.5041 5.60976 16.5603 0.731707 11.3198 0.0487805Z"/>
</mask>
<path d="M11.3198 0.0487805L11.0686 1.83116L11.0779 1.83247L11.0872 1.83369L11.3198 0.0487805ZM7.36477 0.439024L6.8293 -1.27949L6.81171 -1.274L6.79422 -1.26816L7.36477 0.439024ZM0.789467 7.80488L-0.92489 7.2562L-0.927369 7.26407L0.789467 7.80488ZM1.03666 19.7561L-0.68085 20.2949L-0.677485 20.3054L1.03666 19.7561ZM13.3468 31.9512L13.5672 30.1648L13.5631 30.1643L13.3468 31.9512ZM17.3019 31.561L17.8374 33.2795L17.855 33.274L17.8724 33.2682L17.3019 31.561ZM23.8772 24.1951L22.1604 23.6543L22.1573 23.6639L22.1544 23.6736L23.8772 24.1951ZM23.63 12.2439L25.3475 11.7051L25.3441 11.6946L23.63 12.2439ZM11.5711 -1.7336C11.0756 -1.80344 10.5454 -1.8 10.1828 -1.8V1.8C10.6111 1.8 10.872 1.80344 11.0686 1.83116L11.5711 -1.7336ZM10.1828 -1.8C9.0534 -1.8 7.93373 -1.62361 6.8293 -1.27949L7.90024 2.15753C8.67447 1.91629 9.43346 1.8 10.1828 1.8V-1.8ZM6.79422 -1.26816C3.05955 -0.0200236 0.391873 3.142 -0.924872 7.25621L2.50381 8.35355C3.5601 5.05312 5.53963 2.94685 7.93531 2.14621L6.79422 -1.26816ZM-0.927369 7.26407C-2.19113 11.276 -2.05935 15.9004 -0.680818 20.2949L2.75414 19.2173C1.56188 15.4167 1.4959 11.5533 2.5063 8.34569L-0.927369 7.26407ZM-0.677485 20.3054C1.57832 27.3451 6.95295 32.9906 13.1306 33.7382L13.5631 30.1643C9.25974 29.6435 4.7467 25.4354 2.7508 19.2068L-0.677485 20.3054ZM13.1265 33.7377C13.6486 33.8021 14.1523 33.8 14.4839 33.8V30.2C14.1234 30.2 13.836 30.1979 13.5672 30.1648L13.1265 33.7377ZM14.4839 33.8C15.6133 33.8 16.7329 33.6236 17.8374 33.2795L16.7664 29.8425C15.9922 30.0837 15.2332 30.2 14.4839 30.2V33.8ZM17.8724 33.2682C21.5867 32.0268 24.3252 28.9276 25.6 24.7167L22.1544 23.6736C21.155 26.9749 19.1474 29.0463 16.7313 29.8538L17.8724 33.2682ZM25.594 24.7359C26.8578 20.724 26.726 16.0996 25.3475 11.7051L21.9125 12.7827C23.1048 16.5833 23.1708 20.4467 22.1604 23.6543L25.594 24.7359ZM25.3441 11.6946C23.0841 4.64157 17.7077 -0.933991 11.5524 -1.73613L11.0872 1.83369C15.4129 2.39741 19.9242 6.57794 21.9159 12.7932L25.3441 11.6946Z" fill="#343552" mask="url(#path-1-inside-1_3539_698)"/>
<path d="M9.97778 15.11C10.9061 15.11 11.6587 14.3675 11.6587 13.4515C11.6587 12.5355 10.9061 11.793 9.97778 11.793C9.04944 11.793 8.29688 12.5355 8.29688 13.4515C8.29688 14.3675 9.04944 15.11 9.97778 15.11Z" fill="#343552" stroke="#343552" stroke-width="0.064904" stroke-miterlimit="10"/>
<path d="M18.0894 21.1098L12.75 7.5L21.1051 19.939L18.0894 21.1098Z" fill="#343552"/>
<path d="M61.184 15.7935V24.6586L57.8038 24.6586V16.2239C57.8038 13.9861 56.6474 12.695 54.6015 12.695C52.7335 12.695 51.4882 13.9861 51.3103 15.7074V15.7935V24.6586L48.0191 24.6586V16.2239C48.0191 13.9861 46.7738 12.695 44.9947 12.695C42.8599 12.695 41.5256 14.2443 41.5256 16.2239V24.5725L38.2344 24.5725V9.94082L41.3477 9.94082V11.9204C42.1483 10.6294 43.4825 9.68262 45.7063 9.68262C47.8412 9.68262 49.5313 10.6294 50.5097 12.3508C51.3993 10.8015 53.0893 9.68262 55.4021 9.68262C58.8712 9.76869 61.184 12.1786 61.184 15.7935Z" fill="#343552"/>
<path d="M64.3909 31.8888L68.1269 23.5402L62.0781 10.0273L65.8141 10.0273L69.9059 20.0113L73.9977 10.0273L77.6447 10.0273L67.949 31.8888L64.3909 31.8888Z" fill="#343552"/>
<path d="M107.171 15.7935V24.6586L103.791 24.6586V16.2239C103.791 13.9861 102.635 12.695 100.589 12.695C98.7209 12.695 97.4756 13.9861 97.2977 15.7074V15.7935V24.6586L93.9175 24.6586V16.2239C93.9175 13.9861 92.6722 12.695 90.8932 12.695C88.7583 12.695 87.424 14.2443 87.424 16.2239V24.5725L84.1328 24.5725V9.94082L87.2461 9.94082V11.9204C88.0467 10.6294 89.381 9.68262 91.6048 9.68262C93.7396 9.68262 95.4297 10.6294 96.4082 12.3508C97.2977 10.8015 98.9878 9.68262 101.301 9.68262C104.859 9.76869 107.171 12.1786 107.171 15.7935Z" fill="#343552"/>
<path d="M114.024 4.94987C114.024 6.06877 113.046 6.92946 111.89 6.92946C110.733 6.92946 109.844 6.06877 109.844 4.94987C109.844 3.83098 110.822 2.97029 111.89 2.97029C113.135 2.88422 114.024 3.83098 114.024 4.94987ZM110.289 24.6596V10.0279L113.58 10.0279V24.6596L110.289 24.6596Z" fill="#343552"/>
<path d="M130.393 15.7935V24.6586L127.012 24.6586V16.2239C127.012 13.9861 125.678 12.695 123.721 12.695C121.586 12.695 120.252 14.2443 120.252 16.2239V24.5725L116.961 24.5725V9.94082L120.074 9.94082V11.9204C120.875 10.6294 122.298 9.68262 124.522 9.68262C127.902 9.76869 130.393 12.0065 130.393 15.7935Z" fill="#343552"/>
<path d="M144.885 24.6589V22.5932C144.084 23.9703 142.216 24.9171 139.903 24.9171C135.723 24.9171 132.609 21.9908 132.609 17.343C132.609 12.6953 135.723 9.76898 139.903 9.76898C142.216 9.76898 143.906 10.6297 144.707 11.8346V2.45312L147.998 2.45312V24.6589L144.885 24.6589ZM135.99 17.343C135.99 20.4415 137.858 22.1629 140.437 22.1629C142.928 22.1629 144.707 20.6137 144.707 17.6873V16.9127C144.707 13.9864 142.928 12.4371 140.437 12.4371C137.858 12.4371 135.99 14.2446 135.99 17.343Z" fill="#343552"/>
<path d="M164.049 11.392C162.397 11.392 161.053 12.736 161.053 14.36C161.053 16.012 162.397 17.356 164.049 17.356C165.673 17.356 167.017 16.012 167.017 14.36C167.017 12.736 165.673 11.392 164.049 11.392ZM181.353 24.944C184.937 24.944 187.933 24.972 189.977 25.084C190.313 23.488 190.565 22.004 190.761 20.184L189.837 19.988C189.445 21.108 189.165 21.724 188.773 22.312C188.353 22.928 187.821 23.404 186.785 23.544C186.029 23.656 185.301 23.684 184.237 23.684C182.977 23.684 182.613 23.432 182.473 22.06C182.417 21.5 182.361 19.988 182.361 19.008V15.564C183.285 15.564 184.909 15.592 185.805 15.704C187.065 15.872 187.457 16.376 187.877 17.608L188.661 17.468C188.577 16.376 188.577 15.592 188.577 14.892C188.577 14.192 188.577 13.436 188.661 12.344L187.877 12.204C187.457 13.436 187.065 13.996 185.805 14.136C184.909 14.22 183.313 14.248 182.361 14.248V10.888C182.361 9.88 182.361 8.872 182.445 8.004C182.529 6.884 182.697 6.66 184.013 6.66C184.825 6.66 185.385 6.688 186.085 6.856C186.645 6.996 187.205 7.248 187.653 7.696C188.157 8.2 188.493 8.844 188.913 9.908L189.809 9.712C189.669 8.032 189.529 6.856 189.305 5.316C188.213 5.4 187.289 5.4 186.141 5.4H180.933C180.233 5.4 179.337 5.4 178.105 5.316L178.021 6.072C179.141 6.52 179.309 7.136 179.393 8.368C179.477 9.32 179.477 10.468 179.477 11.448V18.896C179.477 19.876 179.477 21.052 179.393 21.976C179.309 23.208 179.141 23.824 178.021 24.272L178.105 25.028C179.337 24.944 180.317 24.944 181.353 24.944ZM203.284 16.572C203.284 15.452 203.088 14.696 202.696 14.024C202.052 12.932 200.96 12.316 199.532 12.316C197.852 12.316 196.592 13.38 195.836 14.808L195.78 14.78C195.808 14.08 195.864 13.38 195.976 12.484L195.332 12.26C194.212 13.128 193.204 13.688 191.748 14.248V14.836C192.812 15.032 193.036 15.256 193.12 16.376C193.176 17.244 193.204 18.056 193.204 18.896V19.764C193.204 20.632 193.204 21.556 193.12 22.424C193.036 23.572 192.868 23.992 191.86 24.384L191.916 25.028C193.008 24.944 193.848 24.944 194.492 24.944C195.22 24.944 195.892 24.944 196.956 25.028L197.04 24.384C196.116 23.964 195.976 23.516 195.892 22.452C195.836 21.584 195.808 20.632 195.808 19.764V17.216C195.808 15.676 196.872 14.444 198.552 14.444C199.868 14.444 200.68 15.34 200.68 16.768V19.764C200.68 20.632 200.652 21.584 200.596 22.452C200.512 23.516 200.4 23.964 199.476 24.384L199.56 25.028C200.624 24.944 201.268 24.944 201.996 24.944C202.64 24.944 203.508 24.944 204.6 25.028L204.656 24.384C203.62 23.964 203.452 23.572 203.368 22.424C203.284 21.556 203.284 20.632 203.284 19.764V16.572ZM209.422 17.552C209.422 15.704 209.422 14.612 209.562 12.484L208.974 12.26C207.77 13.156 206.818 13.688 205.334 14.248V14.836C206.342 15.032 206.622 15.284 206.706 16.404C206.79 17.244 206.79 18.084 206.79 18.924V25.868C206.79 28.696 206.37 30.04 205.026 31.776L205.586 32.392C207.686 31.216 209.254 29.172 209.478 26.316C209.422 25.252 209.422 23.964 209.422 22.928V17.552ZM206.258 6.296C206.258 7.36 207.042 8.144 208.106 8.144C209.17 8.144 209.954 7.36 209.954 6.296C209.954 5.232 209.17 4.448 208.106 4.448C207.042 4.448 206.258 5.232 206.258 6.296ZM211.103 18.896C211.103 22.592 213.847 25.476 217.711 25.476C221.295 25.476 224.067 22.536 224.067 18.896C224.067 15.172 221.351 12.316 217.571 12.316C213.931 12.316 211.103 15.284 211.103 18.896ZM217.487 13.772C219.475 13.772 221.099 15.816 221.099 19.064C221.099 22.256 219.727 23.992 217.767 23.992C215.527 23.992 214.043 22.06 214.043 18.644C214.043 15.396 215.555 13.772 217.487 13.772ZM229.288 25.28L227.748 28.668C227.328 29.62 226.992 30.012 226.32 30.012C225.816 30.012 225.564 29.76 224.92 29.76C224.164 29.76 223.492 30.376 223.492 31.216C223.492 32.084 224.276 32.728 225.256 32.728C226.516 32.728 227.776 32.168 229.176 28.864L233.796 17.972C234.132 17.16 234.468 16.376 234.888 15.508C235.42 14.416 235.784 13.968 236.372 13.52L236.288 12.876C235.476 12.96 235.14 12.96 234.244 12.96C233.656 12.96 233.04 12.96 232.172 12.876L232.06 13.52C232.9 13.996 233.04 14.444 233.04 15.06C233.04 15.536 232.928 16.292 232.284 17.916L230.66 22.004L229.008 17.888C228.168 15.816 228.112 15.2 228.112 14.668C228.112 14.192 228.308 13.912 228.952 13.548L228.896 12.876C228.028 12.96 227.328 12.96 226.516 12.96C225.76 12.96 224.78 12.96 223.968 12.876L223.856 13.52C224.472 13.968 224.668 14.22 225.116 15.144C225.592 16.124 225.928 17.188 226.264 17.972L229.288 25.28ZM241.726 14.024C242.93 14.276 242.986 14.668 242.986 15.508V21.192C242.986 22.788 243.294 23.768 243.77 24.356C244.33 25.028 245.17 25.392 246.094 25.392C247.522 25.392 248.558 24.552 248.838 23.544L248.418 22.676C248.026 23.04 247.55 23.292 247.046 23.292C246.626 23.292 246.234 23.208 245.982 22.872C245.786 22.62 245.59 22.144 245.59 20.772V14.444H248.446L248.698 13.268L248.474 12.736C247.438 12.82 246.71 12.848 245.618 12.876C245.674 12.036 245.73 10.916 245.842 10.02L245.058 9.796C243.966 11.42 243.042 12.4 241.586 13.296L241.726 14.024ZM253.07 14.78L253.126 9.236C253.154 7.388 253.154 6.296 253.266 4.168L252.678 3.944C251.418 4.84 250.494 5.344 249.038 5.932V6.548C250.046 6.744 250.326 6.968 250.41 8.088C250.494 8.928 250.494 9.768 250.494 10.608V19.764C250.494 20.632 250.494 21.556 250.41 22.424C250.326 23.572 250.158 23.992 249.15 24.384L249.206 25.028C250.298 24.944 251.138 24.944 251.782 24.944C252.51 24.944 253.182 24.944 254.246 25.028L254.33 24.384C253.406 23.964 253.266 23.516 253.182 22.452C253.126 21.584 253.098 20.632 253.098 19.764V17.216C253.098 15.676 254.162 14.444 255.842 14.444C257.158 14.444 257.97 15.34 257.97 16.768V19.764C257.97 20.632 257.942 21.584 257.886 22.452C257.802 23.516 257.69 23.964 256.766 24.384L256.85 25.028C257.914 24.944 258.558 24.944 259.286 24.944C259.93 24.944 260.798 24.944 261.89 25.028L261.946 24.384C260.91 23.964 260.742 23.572 260.658 22.424C260.574 21.556 260.574 20.632 260.574 19.764V16.572C260.574 15.452 260.378 14.696 259.986 14.024C259.342 12.932 258.25 12.316 256.822 12.316C255.142 12.316 253.882 13.38 253.126 14.808L253.07 14.78ZM262.598 19.12C262.598 22.508 265.034 25.448 268.618 25.448C271.11 25.448 272.846 23.74 273.798 21.276L273.014 20.772C271.838 22.396 270.802 23.012 269.01 23.012C266.798 23.012 265.258 21.164 265.258 18.532C265.258 18.28 265.258 18.056 265.314 17.804H273.77C273.826 17.524 273.826 17.356 273.826 17.076C273.826 14.332 271.754 12.288 268.814 12.288C265.342 12.288 262.598 15.172 262.598 19.12ZM265.482 16.516C265.818 14.92 266.91 13.744 268.394 13.744C269.794 13.744 270.858 14.64 270.886 16.516H265.482ZM280.203 22.788C280.203 23.404 280.595 24.076 281.099 24.524C281.939 25.252 282.807 25.476 284.347 25.476C286.643 25.476 288.491 24.048 288.491 21.78C288.491 20.156 287.679 19.064 285.439 17.86C283.395 16.768 282.807 16.068 282.807 15.144C282.807 14.248 283.395 13.66 284.207 13.66C284.991 13.66 285.299 14.08 285.635 14.808C285.915 15.452 286.363 15.956 287.035 15.956C287.707 15.956 288.211 15.48 288.211 14.724C288.211 14.136 287.847 13.576 287.371 13.212C286.531 12.54 285.775 12.344 284.571 12.344C282.415 12.344 280.623 13.912 280.623 15.984C280.623 17.468 281.463 18.672 283.815 19.904C285.551 20.828 286.167 21.5 286.167 22.536C286.167 23.544 285.495 24.132 284.431 24.132C283.339 24.132 283.059 23.516 282.863 22.76C282.611 21.864 282.107 21.444 281.435 21.444C280.707 21.444 280.203 21.976 280.203 22.788ZM293.299 17.552C293.299 15.704 293.355 14.612 293.439 12.484L292.851 12.26C291.647 13.156 290.695 13.688 289.239 14.248V14.836C290.247 15.032 290.499 15.284 290.611 16.404C290.695 17.244 290.695 18.084 290.695 18.924V19.736C290.695 20.604 290.667 21.612 290.611 22.452C290.555 23.572 290.359 23.992 289.351 24.384L289.435 25.028C290.499 24.944 291.255 24.944 291.983 24.944C292.711 24.944 293.383 24.944 294.447 25.028L294.531 24.384C293.607 23.992 293.411 23.572 293.355 22.452C293.327 21.584 293.299 20.604 293.299 19.736V17.552ZM290.135 6.296C290.135 7.36 290.919 8.144 291.983 8.144C293.047 8.144 293.831 7.36 293.831 6.296C293.831 5.232 293.047 4.448 291.983 4.448C290.919 4.448 290.135 5.232 290.135 6.296ZM299.588 9.236C299.588 7.388 299.616 6.296 299.728 4.168L299.14 3.944C297.88 4.84 296.956 5.344 295.5 5.932V6.548C296.508 6.744 296.788 6.968 296.872 8.088C296.956 8.928 296.956 9.768 296.956 10.608V19.736C296.956 20.604 296.956 21.584 296.9 22.452C296.844 23.572 296.62 23.992 295.612 24.384L295.696 25.028C296.76 24.944 297.516 24.944 298.244 24.944C298.972 24.944 299.644 24.944 300.708 25.028L300.792 24.384C299.868 23.992 299.7 23.572 299.644 22.452C299.588 21.584 299.588 20.604 299.588 19.736V9.236ZM301.568 19.12C301.568 22.508 304.004 25.448 307.588 25.448C310.08 25.448 311.816 23.74 312.768 21.276L311.984 20.772C310.808 22.396 309.772 23.012 307.98 23.012C305.768 23.012 304.228 21.164 304.228 18.532C304.228 18.28 304.228 18.056 304.284 17.804H312.74C312.796 17.524 312.796 17.356 312.796 17.076C312.796 14.332 310.724 12.288 307.784 12.288C304.312 12.288 301.568 15.172 301.568 19.12ZM304.452 16.516C304.788 14.92 305.88 13.744 307.364 13.744C308.764 13.744 309.828 14.64 309.856 16.516H304.452ZM325.306 16.572C325.306 15.452 325.11 14.696 324.718 14.024C324.074 12.932 322.982 12.316 321.554 12.316C319.874 12.316 318.614 13.38 317.858 14.808L317.802 14.78C317.83 14.08 317.886 13.38 317.998 12.484L317.354 12.26C316.234 13.128 315.226 13.688 313.77 14.248V14.836C314.834 15.032 315.058 15.256 315.142 16.376C315.198 17.244 315.226 18.056 315.226 18.896V19.764C315.226 20.632 315.226 21.556 315.142 22.424C315.058 23.572 314.89 23.992 313.882 24.384L313.938 25.028C315.03 24.944 315.87 24.944 316.514 24.944C317.242 24.944 317.914 24.944 318.978 25.028L319.062 24.384C318.138 23.964 317.998 23.516 317.914 22.452C317.858 21.584 317.83 20.632 317.83 19.764V17.216C317.83 15.676 318.894 14.444 320.574 14.444C321.89 14.444 322.702 15.34 322.702 16.768V19.764C322.702 20.632 322.674 21.584 322.618 22.452C322.534 23.516 322.422 23.964 321.498 24.384L321.582 25.028C322.646 24.944 323.29 24.944 324.018 24.944C324.662 24.944 325.53 24.944 326.622 25.028L326.678 24.384C325.642 23.964 325.474 23.572 325.39 22.424C325.306 21.556 325.306 20.632 325.306 19.764V16.572ZM335.252 15.732C335.392 16.74 335.896 17.272 336.764 17.272C337.66 17.272 338.22 16.6 338.22 15.676C338.22 14.892 337.884 14.136 337.156 13.492C336.316 12.764 335.168 12.316 333.712 12.316C330.212 12.316 327.272 15.172 327.272 19.148C327.272 22.536 329.736 25.476 333.208 25.476C335.728 25.476 337.408 23.824 338.276 21.36L337.548 20.884C336.428 22.424 335.392 23.012 333.712 23.012C331.556 23.012 330.044 21.192 330.044 18.448C330.044 15.452 331.472 13.716 333.376 13.716C334.384 13.716 335.028 14.276 335.252 15.732ZM338.814 19.12C338.814 22.508 341.25 25.448 344.834 25.448C347.326 25.448 349.062 23.74 350.014 21.276L349.23 20.772C348.054 22.396 347.018 23.012 345.226 23.012C343.014 23.012 341.474 21.164 341.474 18.532C341.474 18.28 341.474 18.056 341.53 17.804H349.986C350.042 17.524 350.042 17.356 350.042 17.076C350.042 14.332 347.97 12.288 345.03 12.288C341.558 12.288 338.814 15.172 338.814 19.12ZM341.698 16.516C342.034 14.92 343.126 13.744 344.61 13.744C346.01 13.744 347.074 14.64 347.102 16.516H341.698ZM351.547 23.516C351.547 24.608 352.359 25.42 353.451 25.42C354.543 25.42 355.355 24.608 355.355 23.516C355.355 22.424 354.543 21.612 353.451 21.612C352.359 21.612 351.547 22.424 351.547 23.516Z" fill="url(#paint0_linear_3539_698)"/>
<defs>
<linearGradient id="paint0_linear_3539_698" x1="361.5" y1="1.99997" x2="179" y2="25" gradientUnits="userSpaceOnUse">
<stop stop-color="#D4BAEE"/>
<stop offset="1" stop-color="#9A8DD0"/>
</linearGradient>
</defs>
</svg>
